<mxfile host="app.diagrams.net" modified="2023-05-08T08:47:38.662Z" agent="Mozilla/5.0 (Windows NT 10.0; Win64; x64) AppleWebKit/537.36 (KHTML, like Gecko) Chrome/113.0.0.0 Safari/537.36 Edg/113.0.1774.35" etag="yRQYNiZid1pK601Lldg-" version="21.2.9" type="github">
  <diagram name="第 1 页" id="_FrOOEvVtqLL5inn26dT">
    <mxGraphModel dx="928" dy="579" grid="1" gridSize="10" guides="1" tooltips="1" connect="1" arrows="1" fold="1" page="1" pageScale="1" pageWidth="827" pageHeight="1169" math="0" shadow="0">
      <root>
        <mxCell id="0" />
        <mxCell id="1" parent="0" />
        <mxCell id="obTBIiqndRIgwJYT5QR7-1" value="&lt;b&gt;&lt;font style=&quot;font-size: 20px;&quot;&gt;1&lt;/font&gt;&lt;/b&gt;" style="whiteSpace=wrap;html=1;aspect=fixed;fillColor=#ffe6cc;strokeColor=#d79b00;" vertex="1" parent="1">
          <mxGeometry x="360" y="200" width="40" height="40" as="geometry" />
        </mxCell>
        <mxCell id="obTBIiqndRIgwJYT5QR7-22" value="&lt;b&gt;&lt;font style=&quot;font-size: 20px;&quot;&gt;1&lt;/font&gt;&lt;/b&gt;" style="whiteSpace=wrap;html=1;aspect=fixed;fillColor=#ffe6cc;strokeColor=#d79b00;" vertex="1" parent="1">
          <mxGeometry x="400" y="200" width="40" height="40" as="geometry" />
        </mxCell>
        <mxCell id="obTBIiqndRIgwJYT5QR7-23" value="&lt;b&gt;&lt;font style=&quot;font-size: 20px;&quot;&gt;-1&lt;/font&gt;&lt;/b&gt;" style="whiteSpace=wrap;html=1;aspect=fixed;fillColor=#ffe6cc;strokeColor=#d79b00;" vertex="1" parent="1">
          <mxGeometry x="440" y="200" width="40" height="40" as="geometry" />
        </mxCell>
        <mxCell id="obTBIiqndRIgwJYT5QR7-24" value="&lt;b&gt;&lt;font style=&quot;font-size: 20px;&quot;&gt;-1&lt;/font&gt;&lt;/b&gt;" style="whiteSpace=wrap;html=1;aspect=fixed;fillColor=#ffe6cc;strokeColor=#d79b00;" vertex="1" parent="1">
          <mxGeometry x="360" y="240" width="40" height="40" as="geometry" />
        </mxCell>
        <mxCell id="obTBIiqndRIgwJYT5QR7-25" value="&lt;b&gt;&lt;font style=&quot;font-size: 20px;&quot;&gt;0&lt;/font&gt;&lt;/b&gt;" style="whiteSpace=wrap;html=1;aspect=fixed;fillColor=#ffe6cc;strokeColor=#d79b00;" vertex="1" parent="1">
          <mxGeometry x="400" y="240" width="40" height="40" as="geometry" />
        </mxCell>
        <mxCell id="obTBIiqndRIgwJYT5QR7-26" value="&lt;b&gt;&lt;font style=&quot;font-size: 20px;&quot;&gt;1&lt;/font&gt;&lt;/b&gt;" style="whiteSpace=wrap;html=1;aspect=fixed;fillColor=#ffe6cc;strokeColor=#d79b00;" vertex="1" parent="1">
          <mxGeometry x="440" y="240" width="40" height="40" as="geometry" />
        </mxCell>
        <mxCell id="obTBIiqndRIgwJYT5QR7-27" value="&lt;b&gt;&lt;font style=&quot;font-size: 20px;&quot;&gt;-1&lt;/font&gt;&lt;/b&gt;" style="whiteSpace=wrap;html=1;aspect=fixed;fillColor=#ffe6cc;strokeColor=#d79b00;" vertex="1" parent="1">
          <mxGeometry x="360" y="280" width="40" height="40" as="geometry" />
        </mxCell>
        <mxCell id="obTBIiqndRIgwJYT5QR7-28" value="&lt;b&gt;&lt;font style=&quot;font-size: 20px;&quot;&gt;-1&lt;/font&gt;&lt;/b&gt;" style="whiteSpace=wrap;html=1;aspect=fixed;fillColor=#ffe6cc;strokeColor=#d79b00;" vertex="1" parent="1">
          <mxGeometry x="400" y="280" width="40" height="40" as="geometry" />
        </mxCell>
        <mxCell id="obTBIiqndRIgwJYT5QR7-29" value="&lt;b&gt;&lt;font style=&quot;font-size: 20px;&quot;&gt;0&lt;/font&gt;&lt;/b&gt;" style="whiteSpace=wrap;html=1;aspect=fixed;fillColor=#ffe6cc;strokeColor=#d79b00;" vertex="1" parent="1">
          <mxGeometry x="440" y="280" width="40" height="40" as="geometry" />
        </mxCell>
      </root>
    </mxGraphModel>
  </diagram>
</mxfile>
